<?xml version="1.0" standalone="no"?>
<!DOCTYPE svg PUBLIC "-//W3C//DTD SVG 20010904//EN"
 "http://www.w3.org/TR/2001/REC-SVG-20010904/DTD/svg10.dtd">
<svg version="1.0" xmlns="http://www.w3.org/2000/svg"
 width="80.000000pt" height="80.000000pt" viewBox="0 0 80.000000 80.000000"
 preserveAspectRatio="xMidYMid meet">

<g transform="translate(0.000000,80.000000) scale(0.100000,-0.100000)"
fill="#000000" stroke="none">
<path d="M360 659 c0 -21 8 -47 20 -61 18 -24 18 -26 2 -40 -9 -9 -22 -13 -29
-11 -8 3 -7 -5 3 -26 16 -32 31 -43 20 -16 -3 10 5 20 25 31 30 15 32 15 60
-12 26 -25 29 -26 29 -8 0 10 -4 26 -9 34 -16 24 -1 32 17 10 15 -18 21 -20
45 -11 30 12 28 31 -2 31 -10 0 -21 3 -25 8 -11 10 -30 9 -37 -1 -13 -19 -51
6 -84 56 l-35 52 0 -36z"/>
<path d="M242 638 c-7 -7 -12 -37 -12 -68 0 -56 -1 -57 -34 -67 -42 -13 -46
-10 -46 36 -1 30 -2 33 -11 18 -6 -9 -9 -36 -7 -60 4 -49 25 -60 57 -28 24 24
41 27 41 9 1 -7 8 3 16 22 8 19 13 44 11 55 -3 11 -1 31 2 45 6 21 12 24 36
22 26 -4 28 -2 16 12 -16 19 -52 21 -69 4z"/>
<path d="M513 633 c10 -9 67 -11 61 -1 -3 4 -19 8 -36 8 -17 0 -28 -3 -25 -7z"/>
<path d="M296 584 c-18 -13 -17 -14 19 -14 21 0 36 1 34 3 -2 1 -11 8 -19 14
-11 9 -20 8 -34 -3z"/>
<path d="M553 522 c-12 -2 -28 -14 -37 -27 -9 -13 -27 -35 -41 -49 -14 -14
-25 -31 -25 -38 -1 -7 -7 2 -15 19 -20 47 -56 61 -100 40 -19 -9 -35 -22 -35
-28 0 -8 4 -8 13 0 10 8 17 7 25 -1 9 -9 16 -7 30 5 23 21 38 22 46 2 6 -17
-16 -30 -37 -22 -6 2 -18 -1 -24 -8 -21 -22 11 -26 45 -5 l30 19 4 -46 c4 -52
-6 -61 -68 -58 -57 3 -64 10 -65 58 l-1 42 -15 -43 c-14 -39 -13 -44 4 -75 19
-31 22 -32 74 -29 36 3 61 10 75 23 19 18 22 18 28 4 3 -9 6 -42 7 -73 1 -56
1 -56 11 -22 6 19 8 60 5 91 -5 53 -3 58 20 68 22 10 29 8 59 -19 30 -25 43
-30 87 -29 29 0 61 4 72 8 17 7 12 10 -25 20 -25 7 -66 19 -92 28 -44 16 -48
20 -48 49 0 45 9 64 31 64 24 0 25 -18 2 -27 -15 -6 -15 -7 3 -14 10 -4 30 -8
44 -8 20 -1 22 1 10 9 -13 9 -13 10 0 10 9 1 6 5 -7 10 -13 5 -23 16 -23 23 0
17 -38 34 -67 29z"/>
<path d="M108 433 c-9 -2 -19 -10 -21 -17 -4 -10 1 -12 15 -8 25 6 38 -12 38
-58 0 -19 7 -44 15 -54 19 -25 12 -33 -38 -47 l-41 -11 24 -14 c52 -28 100
-12 100 33 0 32 12 29 35 -9 l20 -33 6 55 c3 34 1 59 -6 65 -88 82 -115 105
-122 104 -4 -1 -15 -3 -25 -6z"/>
<path d="M745 429 c-16 -5 -52 -13 -79 -17 -60 -9 -71 -28 -22 -38 49 -9 80 1
119 36 34 31 31 34 -18 19z"/>
<path d="M53 353 c9 -2 23 -2 30 0 6 3 -1 5 -18 5 -16 0 -22 -2 -12 -5z"/>
<path d="M0 308 c0 -26 19 -41 50 -40 38 1 45 6 37 26 -5 11 -15 14 -37 10
-19 -4 -30 -2 -30 5 0 6 -4 11 -10 11 -5 0 -10 -6 -10 -12z"/>
<path d="M234 173 c-4 -13 -11 -23 -18 -23 -7 0 -6 -4 2 -9 8 -4 13 -11 13
-15 -3 -21 2 -26 29 -26 34 0 41 19 10 27 -13 4 -19 11 -16 22 3 9 1 23 -4 31
-8 12 -11 11 -16 -7z"/>
<path d="M637 154 c-13 -13 5 -24 36 -23 21 1 25 3 12 6 -11 3 -25 9 -31 14
-6 5 -14 6 -17 3z"/>
<path d="M125 140 c-19 -8 -19 -9 3 -9 12 -1 22 4 22 9 0 6 -1 10 -2 9 -2 0
-12 -4 -23 -9z"/>
<path d="M452 130 c-17 -28 -16 -30 22 -28 35 1 43 21 15 39 -20 12 -23 12
-37 -11z"/>
</g>
</svg>
